# Blender v2.75 (sub 0) OBJ File: 'Bolt.blend'
# www.blender.org
mtllib Bolt.mtl
o Cube_Cube.002
v -0.319239 0.641907 0.834330
v -0.357437 0.950120 1.029771
v -0.319239 0.641907 0.606832
v -0.357437 0.950120 0.725876
v -0.091741 0.641907 0.834330
v -0.053542 0.950120 1.029771
v -0.091741 0.641907 0.606832
v -0.053542 0.950120 0.725876
v -0.319239 0.562404 0.761199
v -0.319239 0.562404 0.988697
v -0.091741 0.562404 0.761199
v -0.091741 0.562404 0.988697
v -0.206835 0.323611 0.706404
v -0.206835 0.323611 0.709094
v -0.204145 0.323611 0.706404
v -0.204145 0.323611 0.709094
vn -0.992400 -0.123000 0.000000
vn 0.000000 0.360300 -0.932800
vn 0.992400 -0.123000 0.000000
vn 0.000000 -0.535500 0.844500
vn 0.000000 0.889000 0.457900
vn 0.000000 1.000000 0.000000
vn 0.000000 0.223700 -0.974700
vn 1.000000 0.000000 0.000000
vn -1.000000 -0.000000 0.000000
vn 0.000000 -0.889000 -0.457900
vn 0.000000 -1.000000 0.000000
vn 0.904800 -0.425900 0.000000
vn -0.904800 -0.425900 0.000000
vn 0.000000 -0.760400 0.649400
usemtl Material.004
s off
f 2//1 4//1 3//1 1//1
f 4//2 8//2 7//2 3//2
f 8//3 6//3 5//3 7//3
f 6//4 2//4 1//4 5//4
f 5//5 1//5 10//5 12//5
f 6//6 8//6 4//6 2//6
f 9//7 11//7 15//7 13//7
f 7//8 5//8 12//8 11//8
f 1//9 3//9 9//9 10//9
f 3//10 7//10 11//10 9//10
f 14//11 13//11 15//11 16//11
f 11//12 12//12 16//12 15//12
f 10//13 9//13 13//13 14//13
f 12//14 10//14 14//14 16//14
