# Blender v2.75 (sub 0) OBJ File: 'SimpleCoin2.blend'
# www.blender.org
mtllib Diamond.mtl
o Icosphere
v -0.065000 -0.440316 -0.025284
v 0.211387 0.639282 0.825365
v -0.788608 0.639282 0.500442
v -0.788608 0.639282 -0.551009
v 0.211387 0.639282 -0.875933
v 0.829425 0.639278 -0.025284
v -0.065001 1.192062 -0.025284
v 0.886057 0.192062 0.283729
v 0.886057 0.192062 -0.334296
v -0.065001 0.192062 0.974716
v 0.522784 0.192062 0.783733
v -1.016059 0.192062 0.283729
v -0.652787 0.192062 0.783733
v -0.652787 0.192062 -0.834300
v -1.016059 0.192062 -0.334296
v 0.522784 0.192062 -0.834300
v -0.065001 0.192062 -1.025284
v 0.623188 0.717798 0.474713
v -0.327870 0.717800 0.783728
v -0.915649 0.717798 -0.025284
v -0.327870 0.717800 -0.834295
v 0.623188 0.717798 -0.525281
v 0.097454 1.042717 0.474711
v 0.460729 1.042714 -0.025284
v -0.490324 1.042716 0.283728
v -0.490324 1.042716 -0.334295
v 0.097454 1.042717 -0.525279
vn 0.408900 0.661700 0.628400
vn -0.471300 0.661700 0.583100
vn -0.700200 0.661700 -0.268000
vn 0.038500 0.661700 -0.748800
vn 0.724000 0.661700 -0.194700
vn 0.268000 0.943500 -0.194700
vn 0.491100 0.794700 -0.356800
vn 0.408900 0.661700 -0.628400
vn -0.102400 0.943500 -0.315100
vn -0.187600 0.794700 -0.577300
vn -0.471300 0.661700 -0.583100
vn -0.331300 0.943500 0.000000
vn -0.607100 0.794700 0.000000
vn -0.700200 0.661700 0.268000
vn -0.102400 0.943500 0.315100
vn -0.187600 0.794700 0.577300
vn 0.038500 0.661700 0.748800
vn 0.268000 0.943500 0.194700
vn 0.491100 0.794700 0.356800
vn 0.724000 0.661700 0.194700
vn 0.889700 0.330400 -0.315100
vn 0.794700 0.187600 -0.577300
vn 0.574600 0.330400 -0.748800
vn -0.024700 0.330400 -0.943500
vn -0.303500 0.187600 -0.934200
vn -0.534600 0.330400 -0.777900
vn -0.905000 0.330400 -0.268000
vn -0.982200 0.187600 0.000000
vn -0.905000 0.330400 0.268000
vn -0.534600 0.330400 0.777900
vn -0.303500 0.187600 0.934200
vn -0.024700 0.330400 0.943500
vn 0.574600 0.330400 0.748800
vn 0.794700 0.187600 0.577300
vn 0.889700 0.330400 0.315100
vn 0.306600 0.125600 -0.943500
vn -0.802600 0.125600 -0.583100
vn -0.802600 0.125600 0.583100
vn 0.306600 0.125600 0.943500
vn 0.992100 0.125600 0.000000
vn 0.447900 -0.832700 0.325500
vn -0.171100 -0.832700 0.526600
vn -0.553700 -0.832700 0.000000
vn -0.171100 -0.832700 -0.526600
vn 0.447900 -0.832700 -0.325500
vn 0.171100 -0.832700 -0.526600
vn -0.447900 -0.832700 -0.325500
vn -0.447900 -0.832700 0.325500
vn 0.171100 -0.832700 0.526600
vn 0.553700 -0.832700 0.000000
usemtl Material
s off
f 2//1 18//1 23//1
f 3//2 19//2 25//2
f 4//3 20//3 26//3
f 5//4 21//4 27//4
f 6//5 22//5 24//5
f 24//6 27//6 7//6
f 24//7 22//7 27//7
f 22//8 5//8 27//8
f 27//9 26//9 7//9
f 27//10 21//10 26//10
f 21//11 4//11 26//11
f 26//12 25//12 7//12
f 26//13 20//13 25//13
f 20//14 3//14 25//14
f 25//15 23//15 7//15
f 25//16 19//16 23//16
f 19//17 2//17 23//17
f 23//18 24//18 7//18
f 23//19 18//19 24//19
f 18//20 6//20 24//20
f 9//21 22//21 6//21
f 9//22 16//22 22//22
f 16//23 5//23 22//23
f 17//24 21//24 5//24
f 17//25 14//25 21//25
f 14//26 4//26 21//26
f 15//27 20//27 4//27
f 15//28 12//28 20//28
f 12//29 3//29 20//29
f 13//30 19//30 3//30
f 13//31 10//31 19//31
f 10//32 2//32 19//32
f 11//33 18//33 2//33
f 11//34 8//34 18//34
f 8//35 6//35 18//35
f 16//36 17//36 5//36
f 14//37 15//37 4//37
f 12//38 13//38 3//38
f 10//39 11//39 2//39
f 8//40 9//40 6//40
f 1//41 8//41 11//41
f 1//42 10//42 13//42
f 1//43 12//43 15//43
f 1//44 14//44 17//44
f 1//45 16//45 9//45
f 16//46 1//46 17//46
f 14//47 1//47 15//47
f 12//48 1//48 13//48
f 10//49 1//49 11//49
f 8//50 1//50 9//50
