# Blender v2.75 (sub 0) OBJ File: 'Heart.blend'
# www.blender.org
mtllib Heart.mtl
o Cylinder.001_Cylinder.003
v 0.161169 -0.181219 0.440000
v -0.157659 -0.181219 0.440000
v 0.161169 1.033345 0.440000
v -0.157659 1.033345 0.440000
v 0.161169 1.210714 1.031128
v -0.157659 1.210714 1.031128
v 0.161169 0.556134 1.271832
v -0.157659 0.556134 1.271832
v 0.161169 0.210643 0.918870
v -0.157659 0.210643 0.918870
v -0.157659 1.246482 0.737235
v 0.161169 1.246482 0.737235
v 0.161169 0.883424 1.314251
v -0.157659 0.883424 1.314251
v -0.157659 1.210715 -0.151128
v 0.161169 1.210715 -0.151128
v -0.157659 0.556134 -0.391832
v 0.161169 0.556134 -0.391832
v -0.157659 0.210643 -0.038870
v 0.161169 0.210643 -0.038870
v 0.161169 1.246482 0.142765
v -0.157659 1.246482 0.142765
v -0.157659 0.883424 -0.434251
v 0.161169 0.883424 -0.434251
v 0.261169 -0.087539 0.440000
v 0.261169 1.005569 0.440000
v 0.261169 0.870639 1.226826
v 0.261169 0.576078 1.188649
v 0.261169 0.265136 0.870983
v 0.261169 1.197391 0.707512
v 0.261169 1.165201 0.972015
v 0.261169 1.197391 0.172489
v 0.261169 0.870639 -0.346826
v 0.261169 1.165201 -0.092015
v 0.261169 0.265136 0.009017
v 0.261169 0.576078 -0.308649
v -0.261826 1.005569 0.440000
v -0.261826 -0.087539 0.440000
v -0.261826 1.197391 0.707512
v -0.261826 0.870639 1.226826
v -0.261826 1.165201 0.972015
v -0.261826 0.265136 0.870983
v -0.261826 0.576078 1.188649
v -0.261826 1.197391 0.172489
v -0.261826 0.870639 -0.346826
v -0.261826 0.576078 -0.308649
v -0.261826 0.265136 0.009017
v -0.261826 1.165201 -0.092015
v 0.440328 0.208220 0.440000
v 0.440328 0.917873 0.440000
v 0.440328 0.830276 0.950812
v 0.440328 0.639045 0.926028
v 0.440328 0.437179 0.719797
v 0.440328 1.042405 0.613670
v 0.440328 1.021507 0.785388
v 0.440328 1.042406 0.266330
v 0.440328 0.830276 -0.070812
v 0.440328 1.021507 0.094613
v 0.440328 0.437180 0.160203
v 0.440328 0.639045 -0.046028
v 0.571800 0.755577 0.440000
v -0.442962 0.208220 0.440000
v -0.442962 0.917873 0.440000
v -0.442962 0.830276 -0.070812
v -0.442962 0.639045 -0.046027
v -0.442962 0.437179 0.160203
v -0.442962 1.042405 0.266330
v -0.442962 1.021507 0.094613
v -0.442962 1.042405 0.613670
v -0.442962 0.830276 0.950812
v -0.442962 1.021507 0.785388
v -0.442962 0.437180 0.719797
v -0.442962 0.639045 0.926028
v -0.574434 0.755577 0.440000
vn 0.000000 0.000000 -1.000000
vn -0.448800 0.887100 0.108000
vn 0.000000 -0.773900 0.633300
vn 0.000000 -0.128500 0.991700
vn 0.463600 0.879600 0.107000
vn 0.000000 -0.714600 0.699500
vn 0.000000 0.992700 0.120800
vn 0.000000 0.812700 -0.582700
vn 0.000000 0.654200 0.756300
vn 0.463600 0.879600 -0.107000
vn 0.000000 -0.773900 -0.633300
vn -0.000000 -0.128500 -0.991700
vn -0.571300 -0.635200 -0.519800
vn -0.000000 -0.714600 -0.699500
vn -0.000000 0.992700 -0.120800
vn -0.000000 0.654200 -0.756300
vn 0.000000 0.812700 0.582700
vn 0.677900 0.729800 0.088800
vn 0.369600 0.755100 0.541500
vn 0.220200 0.792700 0.568400
vn 0.586600 -0.578700 0.566500
vn 0.647900 -0.097900 -0.755400
vn 0.597300 0.524700 0.606500
vn 0.597300 0.524700 -0.606500
vn 0.587000 -0.626600 0.512700
vn 0.220200 0.792700 -0.568400
vn 0.647900 -0.097900 0.755400
vn 0.587000 -0.626600 -0.512700
vn 0.586600 -0.578700 -0.566500
vn -1.000000 -0.000000 0.000000
vn -0.211800 0.794200 0.569500
vn -0.571300 -0.635200 0.519800
vn -0.632500 -0.099600 0.768200
vn -0.448800 0.887100 -0.108000
vn -0.570900 -0.586700 0.574300
vn -0.581600 0.532200 -0.615200
vn -0.581600 0.532200 0.615200
vn -0.632500 -0.099600 -0.768200
vn -0.211800 0.794200 -0.569500
vn -0.570900 -0.586700 -0.574300
vn 0.831900 -0.071300 -0.550400
vn 0.831900 -0.071300 0.550400
vn 0.795400 0.396500 -0.458300
vn 0.369600 0.755100 -0.541500
vn 0.787500 -0.477000 -0.390300
vn 0.787500 -0.477000 0.390300
vn 0.787200 -0.440700 -0.431400
vn 0.795400 0.396500 0.458300
vn 0.787200 -0.440700 0.431400
vn 0.677900 0.729800 -0.088800
vn 0.708200 0.573700 -0.411400
vn 0.957300 0.189200 -0.218700
vn 0.955100 -0.229400 -0.187700
vn 0.955100 -0.229400 0.187700
vn 0.955000 -0.212000 -0.207500
vn 0.957300 0.189200 0.218700
vn 0.955000 -0.212000 0.207500
vn 0.918700 0.392200 -0.047700
vn 0.708200 0.573700 0.411400
vn 0.918700 0.392200 0.047700
vn 0.966700 -0.032900 -0.253600
vn 0.966700 -0.032900 0.253600
vn -0.673800 0.733500 -0.089300
vn -0.366100 0.756200 -0.542300
vn -0.829000 -0.071900 0.554600
vn -0.829000 -0.071900 -0.554600
vn -0.673800 0.733500 0.089300
vn -0.366100 0.756200 0.542300
vn -0.784200 -0.480300 0.393000
vn -0.784200 -0.480300 -0.393000
vn -0.783900 -0.443700 0.434300
vn -0.792200 0.399200 -0.461500
vn -0.783900 -0.443700 -0.434300
vn -0.792200 0.399200 0.461500
vn -0.708200 0.573700 0.411400
vn -0.957300 0.189200 0.218700
vn -0.955100 -0.229400 0.187700
vn -0.955100 -0.229400 -0.187700
vn -0.955000 -0.212000 0.207500
vn -0.957300 0.189200 -0.218700
vn -0.955000 -0.212000 -0.207500
vn -0.918700 0.392200 0.047700
vn -0.708200 0.573700 -0.411400
vn -0.918700 0.392200 -0.047700
vn -0.966700 -0.032900 0.253600
vn -0.966700 -0.032900 -0.253600
usemtl Material.003
s off
f 1//1 2//1 4//1 3//1
f 6//2 11//2 39//2 41//2
f 9//3 10//3 2//3 1//3
f 13//4 14//4 8//4 7//4
f 12//5 5//5 31//5 30//5
f 7//6 8//6 10//6 9//6
f 12//7 11//7 6//7 5//7
f 3//8 4//8 11//8 12//8
f 5//9 6//9 14//9 13//9
f 16//10 21//10 32//10 34//10
f 19//11 20//11 1//11 2//11
f 23//12 24//12 18//12 17//12
f 19//13 2//13 38//13 47//13
f 17//14 18//14 20//14 19//14
f 22//15 21//15 16//15 15//15
f 15//16 16//16 24//16 23//16
f 4//17 3//17 21//17 22//17
f 30//18 31//18 55//18 54//18
f 32//19 26//19 50//19 56//19
f 21//20 3//20 26//20 32//20
f 7//21 9//21 29//21 28//21
f 18//22 24//22 33//22 36//22
f 5//23 13//23 27//23 31//23
f 24//24 16//24 34//24 33//24
f 9//25 1//25 25//25 29//25
f 3//26 12//26 30//26 26//26
f 13//27 7//27 28//27 27//27
f 1//28 20//28 35//28 25//28
f 20//29 18//29 36//29 35//29
f 37//30 38//30 42//30 43//30 40//30 41//30 39//30
f 38//30 37//30 44//30 48//30 45//30 46//30 47//30
f 4//31 22//31 44//31 37//31
f 2//32 10//32 42//32 38//32
f 8//33 14//33 40//33 43//33
f 22//34 15//34 48//34 44//34
f 10//35 8//35 43//35 42//35
f 15//36 23//36 45//36 48//36
f 14//37 6//37 41//37 40//37
f 23//38 17//38 46//38 45//38
f 11//39 4//39 37//39 39//39
f 17//40 19//40 47//40 46//40
f 36//41 33//41 57//41 60//41
f 27//42 28//42 52//42 51//42
f 33//43 34//43 58//43 57//43
f 26//44 30//44 54//44 50//44
f 25//45 35//45 59//45 49//45
f 29//46 25//46 49//46 53//46
f 35//47 36//47 60//47 59//47
f 31//48 27//48 51//48 55//48
f 28//49 29//49 53//49 52//49
f 34//50 32//50 56//50 58//50
f 50//51 54//51 61//51
f 57//52 58//52 61//52
f 49//53 59//53 61//53
f 53//54 49//54 61//54
f 59//55 60//55 61//55
f 55//56 51//56 61//56
f 52//57 53//57 61//57
f 58//58 56//58 61//58
f 56//59 50//59 61//59
f 54//60 55//60 61//60
f 60//61 57//61 61//61
f 51//62 52//62 61//62
f 44//63 48//63 68//63 67//63
f 39//64 37//64 63//64 69//64
f 43//65 40//65 70//65 73//65
f 45//66 46//66 65//66 64//66
f 41//67 39//67 69//67 71//67
f 37//68 44//68 67//68 63//68
f 38//69 42//69 72//69 62//69
f 47//70 38//70 62//70 66//70
f 42//71 43//71 73//71 72//71
f 48//72 45//72 64//72 68//72
f 46//73 47//73 66//73 65//73
f 40//74 41//74 71//74 70//74
f 63//75 67//75 74//75
f 70//76 71//76 74//76
f 62//77 72//77 74//77
f 66//78 62//78 74//78
f 72//79 73//79 74//79
f 68//80 64//80 74//80
f 65//81 66//81 74//81
f 71//82 69//82 74//82
f 69//83 63//83 74//83
f 67//84 68//84 74//84
f 73//85 70//85 74//85
f 64//86 65//86 74//86
