mtllib materials.mtl
v 0 0.2041359 -0.135
v -0.0675 0.2041359 -0.1169136
v -0.0675 -0.205864 -0.1169133
v 0 -0.205864 -0.135
v -0.1169134 0.2041359 -0.06750011
v -0.1169134 -0.205864 -0.06749988
v -0.135 0.2041359 0
v -0.135 -0.205864 0
v -0.1169134 0.2041359 0.06749988
v -0.1169134 -0.205864 0.06750011
v -0.0675 0.2041359 0.1169133
v -0.0675 -0.205864 0.1169136
v 0 0.2041359 0.135
v 0 -0.205864 0.135
v 0.0675 0.2041359 0.1169133
v 0.0675 -0.205864 0.1169136
v 0.1169134 0.2041359 0.06749988
v 0.1169134 -0.205864 0.06750011
v 0.135 0.2041359 0
v 0.135 -0.205864 0
v 0.1169134 0.2041359 -0.06750011
v 0.1169134 -0.205864 -0.06749988
v 0.0675 0.2041359 -0.1169136
v 0.0675 -0.205864 -0.1169133
v 0 -0.1345677 -0.145
v -0.07249999 -0.1345677 -0.1255736
v -0.07249999 -0.1775305 -0.1255736
v 0 -0.1775305 -0.1449997
v -0.1255736 -0.1345677 -0.07249999
v -0.1255736 -0.1775305 -0.07249999
v -0.1449999 -0.1345677 0
v -0.1449999 -0.1775305 0
v -0.1255736 -0.1345677 0.07249975
v -0.1255736 -0.1775305 0.07249999
v -0.07249999 -0.1345677 0.1255734
v -0.07249999 -0.1775305 0.1255736
v 0 -0.1345677 0.145
v 0 -0.1775305 0.145
v 0.07249999 -0.1345677 0.1255734
v 0.07249999 -0.1775305 0.1255736
v 0.1255736 -0.1345677 0.07249975
v 0.1255736 -0.1775305 0.07249999
v 0.1449999 -0.1345677 0
v 0.1449999 -0.1775305 0
v 0.1255736 -0.1345677 -0.07249999
v 0.1255736 -0.1775305 -0.07249999
v 0.07249999 -0.1345677 -0.1255736
v 0.07249987 -0.1775305 -0.1255736
v 0 0.1783948 -0.145
v -0.07249999 0.1783948 -0.1255736
v -0.07249999 0.135432 -0.1255736
v 0 0.135432 -0.1449997
v -0.1255736 0.1783948 -0.07249999
v -0.1255736 0.135432 -0.07249999
v -0.1449999 0.1783948 0
v -0.1449999 0.135432 0
v -0.1255736 0.1783948 0.07249975
v -0.1255736 0.135432 0.07249999
v -0.07249999 0.1783948 0.1255734
v -0.07249999 0.135432 0.1255736
v 0 0.1783948 0.145
v 0 0.135432 0.145
v 0.07249999 0.1783948 0.1255734
v 0.07249999 0.135432 0.1255736
v 0.1255736 0.1783948 0.07249975
v 0.1255736 0.135432 0.07249999
v 0.1449999 0.1783948 0
v 0.1449999 0.135432 0
v 0.1255736 0.1783948 -0.07249999
v 0.1255736 0.135432 -0.07249999
v 0.07249999 0.1783948 -0.1255736
v 0.07249987 0.135432 -0.1255736
vn 8.742278E-08 -1.748456E-07 -1
vn -0.4999999 -1.514207E-07 -0.8660254
vn -0.8660254 -8.742277E-08 -0.5000001
vn -1 7.642742E-15 -4.371139E-08
vn -0.8660254 8.742278E-08 0.5
vn -0.5000001 1.514207E-07 0.8660253
vn 1.985233E-21 1.748456E-07 1
vn 0.5000002 1.514207E-07 0.8660254
vn 0.8660254 8.742276E-08 0.5
vn 1 -2.085012E-15 7.549789E-08
vn 0.8660255 -8.742276E-08 -0.4999998
vn 0.4999999 -1.514207E-07 -0.8660255
vn 1.528548E-14 1 -1.748456E-07
vn -1.528548E-14 -1 1.748456E-07
vn -0.2588173 -3.776829E-06 -0.9659263
vn -0.7071067 -3.060551E-06 -0.7071068
vn -0.9659261 6.668303E-07 -0.2588183
vn -0.9659258 9.555073E-07 0.2588194
vn -0.7071071 3.157352E-06 0.7071065
vn -0.2588205 1.231242E-06 0.9659255
vn 0.2588203 3.5808E-06 0.9659255
vn 0.7071068 2.338724E-06 0.7071068
vn 0.9659258 8.329635E-07 0.2588192
vn 0.965926 -1.018465E-06 -0.2588185
vn 0.7071066 -2.740102E-06 -0.7071069
vn 0.2588173 -4.378642E-07 -0.9659263
vn 1.528548E-14 1 -1.748456E-07
vn -1.528548E-14 -1 1.748456E-07
vn -0.2588173 -3.776829E-06 -0.9659263
vn -0.7071067 -3.060551E-06 -0.7071068
vn -0.9659261 6.668303E-07 -0.2588183
vn -0.9659258 9.555073E-07 0.2588194
vn -0.7071071 3.157352E-06 0.7071065
vn -0.2588205 1.231242E-06 0.9659255
vn 0.2588203 3.5808E-06 0.9659255
vn 0.7071068 2.338724E-06 0.7071068
vn 0.9659258 8.329635E-07 0.2588192
vn 0.965926 -1.018465E-06 -0.2588185
vn 0.7071066 -2.740102E-06 -0.7071069
vn 0.2588173 -4.378642E-07 -0.9659263
vn 1.528548E-14 1 -1.748456E-07
vn -1.528548E-14 -1 1.748456E-07
usemtl mat16
f 4//1 3//1 2//1 1//1
f 3//2 6//2 5//2 2//2
f 6//3 8//3 7//3 5//3
f 8//4 10//4 9//4 7//4
f 10//5 12//5 11//5 9//5
f 12//6 14//6 13//6 11//6
f 14//7 16//7 15//7 13//7
f 16//8 18//8 17//8 15//8
f 18//9 20//9 19//9 17//9
f 20//10 22//10 21//10 19//10
f 22//11 24//11 23//11 21//11
f 24//12 4//12 1//12 23//12
f 1//13 2//13 5//13 7//13 9//13 11//13 13//13 15//13 17//13 19//13 21//13 23//13
f 24//14 22//14 20//14 18//14 16//14 14//14 12//14 10//14 8//14 6//14 3//14 4//14
usemtl mat8
f 28//15 27//15 26//15 25//15
f 27//16 30//16 29//16 26//16
f 30//17 32//17 31//17 29//17
f 32//18 34//18 33//18 31//18
f 34//19 36//19 35//19 33//19
f 36//20 38//20 37//20 35//20
f 38//21 40//21 39//21 37//21
f 40//22 42//22 41//22 39//22
f 42//23 44//23 43//23 41//23
f 44//24 46//24 45//24 43//24
f 46//25 48//25 47//25 45//25
f 48//26 28//26 25//26 47//26
f 25//27 26//27 29//27 31//27 33//27 35//27 37//27 39//27 41//27 43//27 45//27 47//27
f 48//28 46//28 44//28 42//28 40//28 38//28 36//28 34//28 32//28 30//28 27//28 28//28
f 52//29 51//29 50//29 49//29
f 51//30 54//30 53//30 50//30
f 54//31 56//31 55//31 53//31
f 56//32 58//32 57//32 55//32
f 58//33 60//33 59//33 57//33
f 60//34 62//34 61//34 59//34
f 62//35 64//35 63//35 61//35
f 64//36 66//36 65//36 63//36
f 66//37 68//37 67//37 65//37
f 68//38 70//38 69//38 67//38
f 70//39 72//39 71//39 69//39
f 72//40 52//40 49//40 71//40
f 49//41 50//41 53//41 55//41 57//41 59//41 61//41 63//41 65//41 67//41 69//41 71//41
f 72//42 70//42 68//42 66//42 64//42 62//42 60//42 58//42 56//42 54//42 51//42 52//42
