# Blender v2.75 (sub 0) OBJ File: 'Bush2.blend'
# www.blender.org
mtllib Bush2.mtl
o Cylinder.003
v 0.022281 0.101991 0.128230
v 0.000610 0.101023 0.113276
v 0.003215 0.089784 0.116093
v -0.000496 0.028497 0.119019
v 0.100047 0.218672 0.117997
v 0.010999 0.161055 0.086824
v -0.044037 0.089210 0.138471
v 0.000000 -0.133946 0.133946
v 0.143331 0.100522 0.070903
v 0.008299 0.263668 0.058998
v -0.000000 -0.133946 0.133946
v 0.116001 -0.133946 0.066973
v -0.100047 0.218672 0.117997
v 0.191796 0.173676 0.058998
v 0.116001 -0.133946 0.066973
v 0.002705 0.241357 0.061855
v 0.117524 0.415040 0.042735
v -0.116001 -0.133946 0.066973
v -0.000000 -0.133946 0.133946
v 0.116001 -0.133946 0.066973
v -0.008299 0.263668 0.058998
v -0.191796 0.173676 0.058998
v 0.196145 0.380696 0.123745
v 0.154209 0.094131 -0.062448
v -0.000653 0.248165 0.058366
v 0.138480 0.395655 -0.071757
v -0.154209 0.094131 0.062448
v -0.116001 -0.133946 -0.066973
v -0.000000 -0.133946 -0.133946
v 0.116001 -0.133946 -0.066973
v -0.238057 0.341927 0.105239
v -0.316678 0.307584 0.024229
v 0.295722 0.326969 0.090263
v 0.191796 0.173676 -0.058998
v -0.000000 0.246841 0.045366
v 0.339170 0.539172 0.058998
v 0.008299 0.263668 -0.058998
v 0.339170 0.539172 -0.058999
v -0.143331 0.100522 -0.070903
v -0.022281 0.101991 -0.128230
v 0.044037 0.089210 -0.138471
v -0.138480 0.395655 0.071757
v -0.295722 0.326969 -0.090263
v -0.191796 0.173676 -0.058998
v 0.438807 0.516480 0.117997
v 0.000000 0.246841 -0.045366
v 0.238057 0.341927 -0.105239
v 0.438807 0.516480 -0.117997
v 0.000496 0.028497 -0.119019
v -0.008299 0.263668 -0.058998
v -0.438807 0.516480 0.117997
v -0.538444 0.493788 0.058998
v -0.538444 0.493788 -0.058998
v 0.316678 0.307584 -0.024229
v 0.538444 0.493788 0.058998
v 0.100047 0.218672 -0.117997
v 0.387618 0.743486 0.048323
v 0.402563 0.748581 0.055619
v 0.426204 0.776716 -0.056402
v 0.425950 0.776024 -0.052794
v 0.000653 0.248165 -0.058366
v 0.531086 0.762872 -0.080937
v -0.100047 0.218672 -0.117997
v -0.003215 0.089784 -0.116093
v -0.117524 0.415040 -0.042735
v -0.339170 0.539172 0.058998
v -0.438807 0.516480 -0.117997
v -0.196145 0.380696 -0.123745
v 0.467918 0.762872 0.124181
v -0.010999 0.161055 -0.086824
v 0.464100 0.763985 0.119979
v 0.437408 0.781753 -0.058422
v -0.002705 0.241357 -0.061855
v 0.538444 0.493788 -0.058999
v 0.601895 0.742235 -0.002988
v -0.000610 0.101023 -0.113276
v -0.531086 0.762872 0.080937
v -0.601895 0.742235 0.002988
v -0.570311 0.742235 -0.099571
v -0.467918 0.762872 -0.124181
v 0.570311 0.742235 0.099571
v 0.468324 0.765148 0.123744
v 0.541140 0.828496 -0.077820
v 0.613041 0.847450 -0.008510
v 0.548797 0.831006 -0.073463
v -0.339170 0.539172 -0.058998
v -0.479205 0.773329 0.068468
v -0.417559 0.753122 0.056659
v -0.400683 0.760620 -0.052383
v -0.429101 0.774185 -0.081450
v 0.468589 0.765241 0.123857
v 0.575362 0.815031 0.093572
v 0.612821 0.845379 0.003672
v -0.418272 0.755066 0.042902
v -0.535509 0.791746 0.079565
v -0.610886 0.827113 0.007442
v -0.538970 0.793203 0.077610
v -0.585164 0.829715 -0.087080
v -0.611022 0.828394 -0.002575
v -0.477253 0.795812 -0.119680
v -0.576209 0.827244 -0.092566
v -0.390712 0.756533 -0.047641
v -0.473532 0.794316 -0.118146
v 0.583381 0.819212 0.088580
v 0.116001 -0.133946 0.066973
v 0.116001 -0.133946 0.066973
v 0.116001 -0.133946 0.066973
v -0.889539 0.930555 -0.037469
v 0.054044 0.541886 0.426355
v -0.514165 1.371026 0.922543
v -0.921849 2.039843 0.120648
v -0.002458 0.698252 -0.682191
v 0.604905 1.410965 0.871138
v -0.605588 1.624033 -0.871137
v 0.001775 2.336745 0.682192
v 0.921166 0.995155 -0.120647
v -0.054727 2.493111 -0.426353
v 0.513482 1.663972 -0.922542
v 0.888856 2.104442 0.037470
vt 0.904897 0.596624
vt 0.882812 0.583874
vt 0.860728 0.596624
vt 0.882812 0.634876
vt 0.904897 0.622126
vt 0.857311 0.583874
vt 0.908314 0.583874
vt 0.908314 0.634876
vt 0.857311 0.634876
vt 0.871748 0.586399
vt 0.857951 0.603700
vt 0.862875 0.625275
vt 0.902750 0.625275
vt 0.907674 0.603700
vt 0.893877 0.586399
vt 0.907065 0.617255
vt 0.897802 0.588744
vt 0.867823 0.588744
vt 0.858560 0.617255
vt 0.908314 0.609375
vt 0.900844 0.591343
vt 0.864781 0.591343
vt 0.857311 0.609375
vt 0.860728 0.622126
vt 0.899959 0.634876
vt 0.901729 0.627663
vt 0.906896 0.634876
vt 0.906802 0.633176
vt 0.858729 0.634876
vt 0.857311 0.630535
vt 0.899959 0.583874
vt 0.908314 0.586623
vt 0.863654 0.634876
vt 0.857311 0.609716
vt 0.857311 0.586623
vt 0.857543 0.584006
vt 0.864211 0.634876
vt 0.857311 0.588215
vt 0.868161 0.634876
vt 0.864660 0.588212
vt 0.904000 0.630138
vt 0.908314 0.611832
vt 0.857560 0.634876
vt 0.864642 0.588193
vt 0.857560 0.583874
vt 0.864211 0.583874
vt 0.867983 0.590354
vt 0.868161 0.583874
vt 0.901971 0.634876
vt 0.902560 0.628441
vt 0.860347 0.634876
vt 0.857311 0.609034
vt 0.866064 0.634876
vt 0.860583 0.585752
vt 0.866332 0.634876
vt 0.866226 0.589208
vt 0.860775 0.634876
vt 0.865872 0.588967
vt 0.902683 0.634876
vt 0.857311 0.611832
vt 0.860517 0.585720
vt 0.865249 0.583874
vt 0.865249 0.634876
vt 0.902682 0.583874
vt 0.860347 0.583874
vt 0.866064 0.583874
vt 0.866332 0.583874
vt 0.860775 0.583874
vt 0.089036 0.656824
vt 0.092726 0.657539
vt 0.092684 0.658552
vt 0.088560 0.656648
vt 0.088351 0.654369
vt 0.087289 0.655218
vt 0.084575 0.657166
vt 0.084907 0.657171
vt 0.088877 0.663442
vt 0.084527 0.657540
vt 0.084561 0.657561
vt 0.084723 0.657711
vt 0.084913 0.657865
vt 0.084865 0.657614
vt 0.084067 0.656876
vt 0.084132 0.656961
vt 0.079726 0.652462
vt 0.084540 0.657120
vt 0.084191 0.656781
vt 0.084126 0.656819
vt 0.092785 0.662749
vt 0.091740 0.662845
vt 0.094743 0.659126
vt 0.088483 0.656976
vt 0.086837 0.656405
vt 0.087230 0.658039
vt 0.089786 0.658348
vt 0.092899 0.659713
vt 0.090769 0.657965
vt 0.083568 0.659463
vt 0.081823 0.657554
vt 0.095223 0.660795
vt 0.083864 0.652856
vt 0.081121 0.656152
vt 0.081695 0.656255
vt 0.085736 0.658238
vt 0.086063 0.658440
vt 0.086813 0.660139
vt 0.086896 0.660280
vt 0.086751 0.660245
vt 0.077480 0.656144
vt 0.077561 0.656033
vt 0.082996 0.659191
vt 0.079166 0.657480
vt 0.078914 0.657368
vt 0.088902 0.657364
vt 0.091204 0.659074
vt 0.093592 0.662536
vt 0.094353 0.655657
vt 0.084206 0.647777
vt 0.086874 0.654879
vt 0.088117 0.662837
vt 0.079209 0.645572
vt 0.083889 0.656270
vt 0.084675 0.658751
vt 0.086821 0.658015
vt 0.085283 0.657294
vt 0.091367 0.658073
vt 0.088894 0.656266
vt 0.089258 0.657293
vt 0.093966 0.651066
vt 0.087475 0.659984
vt 0.080158 0.659607
vt 0.088634 0.669229
vt 0.083184 0.660102
vt 0.081746 0.659509
vt 0.093777 0.659262
vt 0.092036 0.656434
vt 0.092723 0.658849
vt 0.080859 0.646928
vt 0.086735 0.648494
vt 0.084870 0.649347
vt 0.092632 0.659461
vt 0.088484 0.657778
vt 0.085079 0.659562
vt 0.086871 0.657656
vt 0.091298 0.658280
vt 0.088521 0.658273
vt 0.078748 0.648876
vt 0.080007 0.647943
vt 0.083281 0.653347
vt 0.082106 0.658643
vt 0.082682 0.659449
vt 0.083478 0.658631
vn -0.568600 0.073500 0.819300
vn -0.528700 0.417200 0.739200
vn 0.402800 0.309800 0.861300
vn 0.427800 0.017200 0.903700
vn 0.438800 -0.189400 0.878400
vn -0.447500 0.223100 0.866000
vn 0.498400 0.080800 0.863200
vn 0.499800 -0.026200 0.865700
vn 0.426500 -0.064800 0.902200
vn -0.492400 0.349400 0.797200
vn -0.533400 -0.097200 0.840300
vn 0.000000 0.000000 1.000000
vn -0.530600 -0.142000 0.835600
vn 0.290400 -0.291200 0.911500
vn 0.871300 -0.488200 0.050100
vn 0.989100 -0.140900 0.043600
vn -0.764300 0.633300 -0.121700
vn 0.000000 -1.000000 -0.000000
vn 0.904500 0.301500 0.301500
vn 0.285300 0.299800 0.910300
vn -0.490000 -0.353700 0.796700
vn -0.860500 0.500700 -0.094200
vn 0.896900 0.442300 0.000000
vn -0.358300 0.611600 0.705400
vn -0.525800 0.842400 -0.117600
vn -0.982100 -0.166300 -0.088100
vn -0.993300 -0.115800 0.000000
vn -0.499800 -0.026200 -0.865700
vn 0.533400 -0.097200 -0.840300
vn -0.762500 -0.635400 -0.121700
vn -0.871300 -0.488200 -0.050100
vn 0.762500 -0.635400 0.121700
vn 0.283200 -0.344800 0.894900
vn 0.530600 -0.142000 -0.835600
vn -0.896900 0.442300 -0.000000
vn -0.285300 0.299800 -0.910300
vn -0.279400 0.352600 -0.893100
vn -0.426500 -0.064800 -0.902200
vn 0.568600 0.073500 -0.819300
vn -0.498400 0.080800 -0.863200
vn 0.764300 0.633300 0.121700
vn 0.279400 0.352600 0.893100
vn -0.394600 -0.558300 0.729800
vn -0.611500 -0.782100 -0.120300
vn -0.476200 0.158100 0.865000
vn -0.939000 0.344000 -0.000000
vn -0.338000 0.199700 -0.919700
vn -0.438800 -0.189400 -0.878400
vn -0.427800 0.017200 -0.903700
vn -0.283200 -0.344800 -0.894900
vn -0.290400 -0.291200 -0.911500
vn 0.611500 -0.782100 0.120300
vn 0.490000 -0.353700 -0.796700
vn 0.354900 -0.131200 0.925600
vn -0.402800 0.309800 -0.861300
vn 0.860500 0.500700 0.094200
vn -0.935100 0.206700 -0.288000
vn -0.729300 0.069100 0.680700
vn 0.394600 -0.558300 -0.729800
vn 0.618400 -0.047100 -0.784500
vn 0.528700 0.417200 -0.739200
vn 0.492400 0.349400 -0.797200
vn 0.525800 0.842400 0.117600
vn 0.341300 0.202800 0.917800
vn -0.618400 -0.047100 0.784500
vn -0.967300 -0.212500 -0.138500
vn -0.354900 -0.131200 -0.925600
vn 0.447500 0.223100 -0.866000
vn -0.681700 0.253400 0.686300
vn -0.217800 0.079600 -0.972800
vn 0.720500 -0.112200 -0.684300
vn 0.358300 0.611600 -0.705400
vn 0.729300 0.069100 -0.680700
vn 0.967300 -0.212500 0.138500
vn 0.245200 0.062700 0.967500
vn -0.452100 0.245300 0.857600
vn 0.503100 -0.036100 -0.863500
vn 0.994400 -0.105300 0.000000
vn 0.939000 0.344000 0.000000
vn 0.217800 0.079600 0.972800
vn -0.720500 -0.112200 0.684300
vn -0.948900 -0.119400 -0.292200
vn -0.245200 0.062700 -0.967500
vn 0.476200 0.158100 -0.865000
vn 0.681700 0.253400 -0.686300
vn 0.515100 0.034800 0.856400
vn 0.948900 -0.119400 0.292200
vn 0.935100 0.206700 0.288000
vn -0.503100 -0.036100 0.863500
vn -0.994400 -0.105300 0.000000
vn -0.515100 0.034800 -0.856400
vn 0.452000 0.245300 -0.857600
vn -0.530600 -0.672400 0.516000
vn -0.914600 -0.083000 0.395700
vn -0.329300 -0.937100 -0.115400
vn 0.057400 -0.483400 0.873500
vn -0.950600 0.016500 -0.310000
vn -0.563900 0.470200 0.678900
vn 0.383100 -0.911700 -0.148100
vn -0.588800 -0.511400 -0.625900
vn 0.036800 0.222800 0.974200
vn 0.622100 -0.631300 0.463100
vn -0.622100 0.631300 -0.463100
vn -0.383100 0.911700 0.148100
vn 0.563900 -0.470200 -0.678900
vn -0.036800 -0.222800 -0.974200
vn 0.588800 0.511400 0.625900
vn 0.950600 -0.016500 0.310000
vn -0.057400 0.483400 -0.873500
vn 0.329300 0.937100 0.115400
vn 0.914600 0.083000 -0.395700
vn 0.530600 0.672400 -0.516000
usemtl Material.002
s off
f 2/1/1 3/2/1 4/3/1 11/4/1 8/4/1 1/5/1
f 2/6/2 1/7/2 5/8/2 6/9/2
f 3/10/3 2/11/3 6/12/3 16/4/3 21/13/3 13/14/3 7/15/3
f 3/6/4 7/7/4 4/8/4
f 1/7/5 9/8/5 14/9/5 5/6/5
f 5/16/6 10/17/6 25/18/6 16/19/6 6/4/6
f 4/6/7 7/7/7 11/8/7
f 1/7/8 8/8/8 20/6/8 12/6/8
f 9/7/9 1/8/9 12/6/9 15/6/9
f 10/9/10 5/6/10 23/7/10 17/8/10
f 27/19/11 18/4/11 19/16/11 11/16/11 7/18/11
f 19/6/12 8/6/12 11/6/12
f 13/9/13 22/6/13 27/7/13 7/8/13
f 5/9/14 14/6/14 33/7/14 23/8/14
f 9/7/15 24/8/15 34/9/15 14/6/15
f 9/9/16 15/6/16 30/7/16 24/8/16
f 17/7/17 26/8/17 37/9/17 10/6/17
f 8/4/18 19/4/18 18/20/18 28/21/18 29/2/18 30/22/18 15/23/18 20/23/18
f 15/6/19 12/6/19 20/6/19
f 13/9/20 21/6/20 42/7/20 31/8/20
f 22/7/21 13/8/21 31/9/21 32/6/21
f 25/6/22 10/7/22 35/8/22
f 25/3/23 35/24/23 46/4/23 50/5/23 21/1/23 16/2/23
f 17/9/24 23/6/24 45/7/24 36/8/24
f 26/9/25 17/6/25 36/7/25 38/8/25
f 18/6/26 27/7/26 39/8/26
f 18/6/27 39/7/27 28/8/27
f 28/6/28 40/7/28 29/8/28
f 29/7/29 41/8/29 24/9/29 30/6/29
f 32/9/30 43/6/30 44/7/30 22/8/30
f 22/9/31 44/6/31 39/7/31 27/8/31
f 14/7/32 34/8/32 54/9/32 33/6/32
f 23/9/33 33/6/33 55/7/33 45/8/33
f 24/7/34 41/8/34 56/9/34 34/6/34
f 10/5/35 37/1/35 73/2/35 61/3/35 46/24/35 35/4/35
f 26/7/36 47/8/36 56/9/36 37/6/36
f 38/9/37 48/6/37 47/7/37 26/8/37
f 28/6/38 39/7/38 40/8/38
f 29/4/39 40/16/39 76/17/39 64/18/39 49/19/39
f 49/6/40 41/7/40 29/8/40
f 21/9/41 50/6/41 65/7/41 42/8/41
f 31/7/42 42/8/42 66/9/42 51/6/42
f 32/7/43 31/8/43 51/9/43 52/6/43
f 43/9/44 32/6/44 52/7/44 53/8/44
f 57/25/45 36/9/45 45/6/45 58/26/45
f 59/27/46 38/9/46 36/6/46 60/28/46
f 48/7/47 38/8/47 59/29/47 72/30/47 62/6/47
f 44/9/48 63/6/48 40/7/48 39/8/48
f 64/6/49 41/7/49 49/8/49
f 53/7/50 67/8/50 68/9/50 43/6/50
f 43/7/51 68/8/51 63/9/51 44/6/51
f 33/9/52 54/6/52 74/7/52 55/8/52
f 34/7/53 56/8/53 47/9/53 54/6/53
f 45/9/54 55/6/54 81/7/54 69/8/54
f 76/11/55 70/12/55 73/4/55 37/13/55 56/14/55 41/15/55 64/10/55
f 61/6/56 50/7/56 46/8/56
f 60/28/57 36/6/57 57/31/57
f 58/26/58 45/6/58 69/7/58 71/32/58
f 48/9/59 74/6/59 54/7/59 47/8/59
f 62/7/60 75/8/60 74/9/60 48/6/60
f 76/6/61 40/7/61 63/8/61 70/9/61
f 50/9/62 63/6/62 68/7/62 65/8/62
f 42/9/63 65/6/63 86/7/63 66/8/63
f 51/7/64 66/8/64 88/33/64 87/34/64 77/6/64
f 52/9/65 51/6/65 77/7/65 78/8/65
f 53/9/66 52/6/66 78/7/66 79/8/66
f 67/9/67 53/6/67 79/7/67 80/8/67
f 61/18/68 73/19/68 70/4/68 63/16/68 50/17/68
f 71/35/69 69/6/69 82/36/69
f 83/37/70 62/9/70 72/38/70
f 84/39/71 75/9/71 62/6/71 85/40/71
f 67/7/72 86/8/72 65/9/72 68/6/72
f 89/41/73 67/6/73 80/7/73 90/42/73
f 55/9/74 74/6/74 75/7/74 81/8/74
f 91/43/75 69/9/75 81/6/75 92/44/75
f 82/36/76 69/6/76 91/45/76
f 85/40/77 62/6/77 83/46/77
f 93/47/78 75/6/78 84/48/78
f 88/49/79 66/9/79 86/6/79 94/50/79
f 95/51/80 77/9/80 87/52/80
f 96/53/81 78/9/81 77/6/81 97/54/81
f 98/55/82 79/9/82 78/6/82 99/56/82
f 100/57/83 80/9/83 79/6/83 101/58/83
f 102/59/84 86/9/84 67/6/84 89/41/84
f 90/60/85 80/6/85 103/61/85
f 92/44/86 81/6/86 104/62/86
f 104/63/87 81/9/87 75/6/87 93/47/87
f 94/50/88 86/6/88 102/64/88
f 97/54/89 77/6/89 95/65/89
f 99/56/90 78/6/90 96/66/90
f 101/58/91 79/6/91 98/67/91
f 103/61/92 80/6/92 100/68/92
f 108/69/93 109/70/93 110/71/93
f 108/72/94 110/73/94 111/74/94
f 99/75/95 108/76/95 112/77/95 102/78/95 89/79/95 90/80/95 103/81/95 100/81/95 101/82/95 98/82/95
f 88/83/95 94/84/95 102/78/95 112/77/95 109/85/95 108/76/95 99/75/95 96/86/95 97/87/95 95/87/95 87/88/95
f 110/89/96 109/90/96 113/91/96
f 108/92/97 111/93/97 114/94/97
f 111/95/98 110/96/98 115/97/98
f 57/98/99 109/99/99 112/100/99 116/101/99 93/102/99 84/103/99 85/104/99 83/105/99 72/106/99 59/107/99 60/108/99
f 92/109/99 104/110/99 93/102/99 116/101/99 109/99/99 57/98/99 58/111/99 71/112/99 82/113/99 91/113/99
f 108/114/100 114/115/100 112/116/100
f 110/117/101 113/118/101 115/119/101
f 109/120/102 116/121/102 113/122/102
f 114/123/103 111/124/103 117/125/103
f 111/126/104 115/127/104 117/128/104
f 112/129/105 118/130/105 116/131/105
f 112/132/106 114/133/106 118/134/106
f 115/135/107 113/136/107 119/137/107
f 113/138/108 116/139/108 119/140/108
f 114/141/109 117/142/109 118/143/109
f 117/144/110 115/145/110 119/146/110
f 116/147/111 118/148/111 119/149/111
f 118/150/112 117/151/112 119/152/112
f 105/6/19 106/6/19 107/6/19
