# Blender v2.75 (sub 0) OBJ File: 'SmallBush3.blend'
# www.blender.org
mtllib SmallBush3.mtl
o Cylinder_Cylinder.004
v 0.084994 -0.182849 -0.049071
v -0.000000 -0.182849 -0.098142
v -0.000000 -0.071313 -0.052834
v 0.043028 -0.063560 -0.024842
v 0.084994 -0.182849 0.049071
v -0.000000 -0.182849 0.098142
v -0.084994 -0.182849 0.049071
v -0.084994 -0.182849 -0.049071
v -0.003553 -0.071413 -0.050824
v 0.010466 -0.067699 -0.045324
v 0.043028 -0.063560 0.024843
v 0.021861 -0.063560 0.037063
v 0.014726 -0.071948 0.044590
v -0.000000 -0.071535 0.052925
v -0.008815 -0.068491 0.046599
v -0.010273 -0.063560 0.043754
v -0.043028 -0.063560 0.024842
v -0.043028 -0.063560 -0.024842
v -0.051656 -0.121627 -0.221258
v 0.011689 -0.063560 -0.042936
v 0.140085 -0.079095 -0.179473
v 0.024295 0.066608 0.014027
v 0.025999 0.054770 0.015010
v 0.031153 0.018958 0.016842
v 0.031748 0.014820 0.018330
v 0.024295 0.066608 -0.014027
v 0.031145 0.008094 0.019796
v 0.025012 -0.060323 0.034706
v -0.023997 -0.033196 0.030785
v -0.016138 0.033580 0.024225
v -0.024763 0.063353 0.000000
v -0.167435 0.005551 -0.117617
v 0.017865 -0.049896 -0.037100
v 0.063154 0.096294 -0.033985
v 0.023483 0.065987 0.014599
v 0.011499 0.004196 -0.031787
v -0.010233 -0.063560 -0.043777
v -0.012416 0.065204 0.021119
v -0.023943 0.069053 0.013824
v -0.023943 0.069053 -0.013824
v -0.012686 -0.061040 -0.041942
v -0.132151 0.038053 -0.312602
v 0.057905 -0.014262 -0.350832
v 0.142812 0.074367 -0.050008
v 0.100394 0.124743 -0.071737
v 0.048230 0.084893 -0.032178
v 0.024674 0.066897 0.014314
v 0.021762 0.064673 -0.015811
v -0.025688 0.074169 0.022816
v -0.170810 0.153615 0.000000
v -0.035079 0.077695 -0.017742
v -0.011837 0.049116 -0.024126
v -0.008520 0.063904 -0.023584
v -0.019498 0.014956 -0.025380
v -0.129425 0.191515 -0.183138
v 0.178095 0.106870 -0.244993
v 0.104581 0.127942 -0.075982
v 0.138188 0.153615 0.100398
v 0.102825 0.126600 0.073581
v 0.077320 0.107115 0.020825
v 0.047362 0.084230 0.008896
v 0.043502 0.081281 -0.031606
v 0.004039 0.067573 -0.025561
v -0.096566 0.153615 0.102187
v -0.056720 0.095130 0.026785
v -0.096688 0.144716 0.082200
v -0.069085 0.104670 -0.031011
v -0.025128 0.072528 -0.019931
v 0.009843 0.179271 -0.327271
v -0.095064 0.153615 -0.104254
v 0.107285 0.153615 -0.110439
v 0.138188 0.153615 -0.100398
v 0.103664 0.127241 0.075315
v -0.076816 0.201683 0.144987
v -0.138188 0.324426 0.100398
v -0.093900 0.163490 -0.109064
v -0.014243 0.215974 -0.162449
v 0.062317 0.234047 -0.141352
v 0.111350 0.137033 -0.086296
v 0.111472 0.136535 -0.085571
v 0.170810 0.324426 0.000000
v 0.106128 0.133806 0.083551
v -0.011676 0.220127 0.162449
v 0.052782 0.324426 0.162449
v -0.065024 0.219363 0.145268
v -0.047215 0.229411 0.149037
v -0.138188 0.324426 -0.100398
v -0.022658 0.215198 -0.159870
v -0.072080 0.192211 -0.148428
v 0.062682 0.233322 -0.140938
v 0.052782 0.324426 -0.162449
v 0.113561 0.153615 0.108400
v 0.024839 0.217079 0.149972
v 0.110021 0.167797 0.112398
v 0.000000 0.429993 0.000000
v 0.059909 0.233513 -0.141877
v 0.062202 0.233935 -0.141217
v -0.132151 0.074367 0.041958
v -0.129425 -0.079095 0.171422
v -0.167435 0.106870 0.236943
v 0.062317 -0.121627 0.213208
v -0.047244 -0.014262 0.342782
v 0.178095 0.005551 0.109567
v 0.000818 0.179271 0.319221
v 0.142812 0.038053 0.304552
v 0.140085 0.191515 0.175087
vt 0.835632 0.929382
vt 0.858117 0.929382
vt 0.858846 0.934903
vt 0.859680 0.935915
vt 0.859680 0.953430
vt 0.835632 0.953430
vt 0.847656 0.953430
vt 0.858069 0.947418
vt 0.858069 0.935394
vt 0.847656 0.929382
vt 0.837243 0.935394
vt 0.837243 0.947418
vt 0.858117 0.953430
vt 0.859680 0.929382
vt 0.859680 0.947711
vt 0.858097 0.951731
vt 0.859680 0.941212
vt 0.857989 0.945882
vt 0.858686 0.933949
vt 0.859680 0.935124
vt 0.089547 0.871186
vt 0.087862 0.869681
vt 0.087462 0.864989
vt 0.089793 0.869644
vt 0.089380 0.870781
vt 0.835632 0.942086
vt 0.835632 0.940930
vt 0.836389 0.937435
vt 0.835632 0.937032
vt 0.859680 0.942086
vt 0.847850 0.929382
vt 0.858530 0.936375
vt 0.849748 0.929698
vt 0.853939 0.929382
vt 0.844786 0.932346
vt 0.846297 0.938862
vt 0.859680 0.942324
vt 0.847656 0.941768
vt 0.835632 0.942324
vt 0.088906 0.865001
vt 0.091452 0.863838
vt 0.091613 0.864748
vt 0.091627 0.865039
vt 0.087548 0.868738
vt 0.090280 0.866208
vt 0.090069 0.866050
vt 0.093048 0.864829
vt 0.098742 0.868809
vt 0.091085 0.866627
vt 0.859680 0.940931
vt 0.858799 0.942025
vt 0.859680 0.937032
vt 0.853147 0.929382
vt 0.849192 0.930716
vt 0.851378 0.935995
vt 0.838382 0.941897
vt 0.847387 0.941949
vt 0.097648 0.865586
vt 0.083167 0.853137
vt 0.096077 0.867575
vt 0.092932 0.860055
vt 0.085816 0.863518
vt 0.091566 0.867068
vt 0.061549 0.679935
vt 0.061551 0.679960
vt 0.063800 0.680278
vt 0.063788 0.680411
vt 0.063651 0.680036
vt 0.846239 0.940379
vt 0.843953 0.941822
vt 0.096184 0.868769
vt 0.092986 0.869235
vt 0.090445 0.869697
vt 0.089316 0.868470
vt 0.090567 0.864696
vt 0.091152 0.866563
vt 0.087515 0.869248
vt 0.088007 0.864923
vt 0.085286 0.853160
vt 0.086492 0.867709
vt 0.087737 0.866394
vt 0.089494 0.874855
vt 0.088134 0.869506
vt 0.086969 0.865364
vt 0.094168 0.871113
vt 0.096770 0.873158
vt 0.090695 0.872498
vt 0.090108 0.870044
vt 0.090472 0.869838
vt 0.090605 0.869765
vt 0.091403 0.868563
vt 0.087557 0.853142
vt 0.086230 0.866335
vt 0.089044 0.867177
vt 0.087485 0.862484
vt 0.088186 0.862264
vt 0.087186 0.866071
vt 0.087574 0.863002
vt 0.087495 0.862661
vt 0.062227 0.680636
vt 0.062245 0.680917
vt 0.062122 0.680981
vt 0.062228 0.681556
vt 0.062211 0.682014
vt 0.060174 0.679976
vt 0.060602 0.679960
vt 0.061312 0.680353
vt 0.061614 0.680285
vt 0.062305 0.680645
vt 0.062288 0.680900
vt 0.855727 0.942180
vt 0.850426 0.937045
vt 0.842811 0.929628
vt 0.841351 0.929382
vt 0.065096 0.680732
vt 0.065096 0.682014
vt 0.063584 0.680591
vt 0.064123 0.680668
vt 0.064948 0.680821
vt 0.063584 0.679888
vt 0.065096 0.679976
vt 0.065096 0.681284
vt 0.064281 0.680393
vt 0.091672 0.868157
vt 0.091522 0.867248
vt 0.091444 0.866752
vt 0.094044 0.869492
vt 0.092315 0.868509
vt 0.099052 0.871272
vt 0.091420 0.871279
vt 0.092147 0.864909
vt 0.087817 0.858657
vt 0.090125 0.860810
vt 0.090289 0.861504
vt 0.094287 0.866014
vt 0.097947 0.866564
vt 0.099195 0.869262
vt 0.090980 0.867410
vt 0.093471 0.864793
vt 0.096470 0.870265
vt 0.089281 0.870573
vt 0.089915 0.864780
vt 0.086490 0.865300
vt 0.085361 0.867662
vt 0.084711 0.868126
vt 0.082341 0.876698
vt 0.087361 0.867894
vt 0.060580 0.679948
vt 0.063906 0.680900
vt 0.063736 0.680217
vt 0.065789 0.683273
vt 0.063102 0.680911
vt 0.062649 0.684198
vt 0.065287 0.684198
vt 0.092642 0.865704
vt 0.096692 0.865652
vt 0.089825 0.860752
vt 0.089280 0.860463
vt 0.087231 0.863679
vt 0.087209 0.863814
vt 0.093619 0.864475
vt 0.087484 0.867884
vt 0.089731 0.865173
vt 0.064674 0.681618
vt 0.064815 0.681701
vt 0.066842 0.684198
vt 0.064662 0.679948
vt 0.064770 0.680025
vt 0.066900 0.681720
vt 0.066217 0.681100
vt 0.066217 0.682011
vt 0.067021 0.682086
vt 0.066905 0.681976
vt 0.066840 0.681862
vt 0.067336 0.682115
vt 0.064151 0.684198
vt 0.062752 0.683455
vt 0.063961 0.684008
vt 0.086638 0.866469
vt 0.087135 0.865219
vt 0.085791 0.861300
vt 0.086446 0.864491
vt 0.065096 0.681684
vt 0.065096 0.680239
vt 0.066301 0.684198
vt 0.062826 0.682918
vt 0.063661 0.682977
vt 0.066069 0.683925
vt 0.061602 0.681195
vt 0.064887 0.681195
vt 0.063702 0.682111
vt 0.066927 0.682077
vt 0.067083 0.681886
vt 0.090933 0.865546
vt 0.090964 0.865575
vt 0.065476 0.682998
vt 0.063328 0.684198
vt 0.063643 0.682664
vt 0.063703 0.682660
vt 0.086832 0.868577
vt 0.086820 0.868546
vt 0.078613 0.664389
vt 0.082821 0.664762
vt 0.083194 0.666787
vt 0.082561 0.667280
vt 0.082213 0.667513
vt 0.081197 0.666515
vt 0.076217 0.667285
vt 0.081449 0.668766
vt 0.082974 0.669604
vt 0.083165 0.669746
vt 0.081117 0.670916
vt 0.084472 0.672727
vt 0.085417 0.669856
vt 0.085002 0.672636
vt 0.083875 0.677925
vt 0.086132 0.669346
vt 0.083888 0.669256
vt 0.083169 0.664840
vt 0.084777 0.666644
vt 0.085246 0.670683
vt 0.083464 0.666866
vt 0.083729 0.666121
vt 0.087887 0.662532
vt 0.085347 0.667984
vt 0.085966 0.670092
vt 0.086087 0.669759
vt 0.086834 0.669164
vt 0.087171 0.669629
vt 0.083816 0.662153
vt 0.084766 0.667123
vt 0.085723 0.670408
vt 0.082184 0.670249
vt 0.085213 0.667413
vt 0.084330 0.670738
vt 0.082353 0.671498
vt 0.082200 0.670595
vt 0.081382 0.675160
vt 0.086474 0.671138
vt 0.082412 0.669034
vt 0.081237 0.671695
vt 0.085311 0.668499
vt 0.083290 0.670503
vt 0.081039 0.672130
vt 0.078229 0.666716
vt 0.084055 0.666314
vt 0.083468 0.670940
vt 0.081375 0.667558
vt 0.083372 0.667024
vt 0.084045 0.667903
vt 0.082962 0.670980
vt 0.078617 0.668055
vt 0.081028 0.667759
vt 0.081265 0.667674
vt 0.077333 0.670260
vt 0.088083 0.677997
vt 0.079006 0.668809
vt 0.081927 0.668302
vt 0.085115 0.666980
vt 0.084904 0.670815
vt 0.077406 0.669449
vt 0.083113 0.673357
vt 0.084689 0.673968
vt 0.085263 0.672367
vt 0.081043 0.670268
vt 0.076097 0.665523
vt 0.082411 0.665516
vt 0.081860 0.670819
vt 0.082251 0.669784
vt 0.080143 0.667605
vt 0.081554 0.668527
vt 0.081940 0.668734
vt 0.081958 0.668793
vt 0.076769 0.669245
vt 0.085535 0.676464
vt 0.084291 0.676542
vt 0.084195 0.676425
vt 0.083792 0.675775
vt 0.082459 0.673608
vt 0.082428 0.672933
vt 0.079659 0.669764
vt 0.085494 0.677682
vt 0.085927 0.668236
vt 0.084933 0.669837
vt 0.075797 0.666876
vt 0.082327 0.667929
vt 0.080707 0.670932
vt 0.085901 0.669442
vt 0.085444 0.670438
vt 0.086399 0.673431
vn 0.471700 0.331900 -0.816900
vn 0.000000 -1.000000 -0.000000
vn -0.471700 0.331900 -0.816900
vn 0.943300 0.331900 0.000000
vn 0.471700 0.331900 0.816900
vn -0.471700 0.331900 0.816900
vn -0.943300 0.331900 0.000000
vn 0.160900 -0.958100 0.236900
vn 0.989800 0.142400 -0.000000
vn 0.494900 0.142400 0.857200
vn -0.494900 0.142400 0.857200
vn -0.989800 0.142400 0.000000
vn -0.514600 -0.772200 0.372700
vn 0.588100 -0.527600 0.613000
vn 0.494900 0.142500 0.857200
vn 0.494900 0.142400 -0.857200
vn -0.806600 -0.541800 -0.236300
vn 0.286300 -0.842600 -0.456100
vn 0.607100 -0.794700 -0.000000
vn -0.491100 -0.794700 0.356800
vn -0.494900 0.142400 -0.857200
vn -0.504900 -0.226800 0.832900
vn -0.311700 -0.585300 -0.748500
vn -0.977400 0.146000 -0.152500
vn 0.790900 -0.340700 -0.508200
vn 0.176600 -0.075600 0.981400
vn 0.977400 -0.146000 0.152500
vn 0.311700 0.585300 0.748500
vn -0.491100 -0.794700 -0.356800
vn -0.176600 0.075600 -0.981400
vn -0.790900 0.340700 0.508200
vn -0.588100 0.527600 -0.613000
vn 0.504900 0.226800 -0.832900
vn 0.806600 0.541800 0.236300
vn 0.607100 -0.794600 0.000000
vn 0.187600 -0.794700 -0.577400
vn -0.794600 -0.187600 0.577400
vn -0.160900 0.958100 -0.236900
vn 0.514600 0.772200 -0.372700
vn 0.187600 -0.794600 -0.577400
vn 0.982200 -0.187600 0.000000
vn 0.187600 -0.794600 0.577400
vn -0.303500 0.187600 0.934200
vn -0.982200 0.187600 0.000000
vn -0.794600 -0.187600 -0.577400
vn -0.286300 0.842600 0.456100
vn 0.794600 0.187600 0.577400
vn 0.794600 0.187600 -0.577400
vn 0.187600 -0.794700 0.577400
vn 0.303500 -0.187600 0.934200
vn -0.187600 0.794700 0.577400
vn -0.607100 0.794700 0.000000
vn -0.303500 0.187600 -0.934200
vn 0.491100 0.794700 0.356800
vn 0.491100 0.794700 -0.356800
vn -0.187600 0.794700 -0.577400
vn 0.303500 -0.187600 -0.934200
vn -0.286300 0.842600 0.456200
vn -0.176600 -0.075600 -0.981400
vn -0.588100 -0.527600 -0.613000
vn -0.311700 0.585300 -0.748500
vn -0.977400 -0.146000 -0.152500
vn -0.160900 -0.958100 -0.236900
vn -0.806600 0.541800 -0.236300
vn -0.790900 -0.340700 0.508200
vn 0.514600 -0.772200 -0.372700
vn -0.286300 -0.842600 0.456100
vn -0.514600 0.772200 0.372700
vn -0.504900 0.226800 0.832900
vn 0.504900 -0.226800 -0.832900
vn 0.806600 -0.541800 0.236300
vn 0.311700 -0.585300 0.748500
vn 0.160900 0.958100 0.236900
vn 0.176600 0.075600 0.981400
vn 0.790900 0.340700 -0.508200
vn 0.977400 0.146000 0.152500
vn 0.588100 0.527600 0.613000
vn 0.286300 0.842600 -0.456100
usemtl Material.001
s off
f 2/1/1 3/2/1 10/3/1 20/4/1 4/5/1 1/6/1
f 2/7/2 1/8/2 5/9/2 6/10/2 7/11/2 8/12/2
f 3/13/3 2/6/3 8/1/3 18/14/3 37/15/3 9/16/3
f 1/1/4 4/14/4 11/5/4 5/6/4
f 5/1/5 11/14/5 12/17/5 13/18/5 14/13/5 6/6/5
f 6/1/6 14/2/6 15/19/6 16/20/6 17/5/6 7/6/6
f 7/1/7 17/14/7 18/5/7 8/6/7
f 9/21/8 19/22/8 21/23/8 10/24/8 3/25/8
f 22/26/9 23/27/9 24/28/9 25/29/9 11/1/9 4/14/9 26/30/9
f 12/31/10 11/14/10 27/32/10 28/33/10
f 17/1/11 16/34/11 29/35/11 30/36/11
f 39/37/12 31/38/12 40/39/12 18/1/12 17/14/12
f 19/40/13 9/41/13 37/42/13 41/43/13 32/44/13
f 20/45/14 10/46/14 21/47/14 44/48/14 33/49/14
f 23/50/10 22/30/10 35/51/10
f 27/32/15 11/14/15 25/52/15
f 26/26/16 4/1/16 20/53/16 33/54/16 36/55/16 48/56/16
f 38/57/11 39/39/11 17/1/11 30/36/11
f 19/58/17 32/59/17 42/60/17
f 21/61/18 19/62/18 43/63/18
f 35/64/19 22/65/19 47/65/19
f 49/66/20 39/67/20 38/68/20
f 52/69/21 18/14/21 40/37/21 53/70/21
f 41/71/22 54/72/22 51/73/22 67/74/22 32/75/22
f 19/76/23 42/77/23 43/78/23
f 32/79/24 55/80/24 42/81/24
f 21/82/25 43/83/25 56/84/25
f 36/85/26 33/86/26 44/87/26 34/88/26 46/89/26 62/90/26 63/91/26
f 44/92/27 21/93/27 56/94/27
f 45/95/28 34/96/28 44/97/28 80/98/28 57/99/28
f 47/65/19 22/65/19 26/100/19 46/101/19 34/102/19 45/103/19 72/104/19 58/105/19 59/106/19 60/107/19 61/108/19
f 26/100/19 48/109/19 62/110/19 46/101/19
f 63/111/16 48/56/16 36/55/16
f 54/112/21 41/113/21 37/114/21 18/14/21 52/69/21
f 64/115/20 50/116/20 31/117/20 39/67/20 49/66/20 65/118/20 66/119/20
f 31/120/29 50/121/29 70/122/29 67/123/29 51/66/29 68/67/29 40/66/29
f 53/124/26 68/125/26 51/126/26 54/127/26 52/128/26
f 53/117/29 40/66/29 68/67/29
f 43/129/30 42/130/30 69/131/30
f 67/132/31 70/133/31 76/134/31 55/135/31 32/136/31
f 42/137/32 55/138/32 69/139/32
f 56/140/33 43/141/33 69/142/33
f 90/143/34 71/144/34 79/145/34 80/145/34 44/146/34 56/147/34 78/143/34
f 57/103/35 72/104/35 45/103/35
f 58/105/19 73/148/19 59/106/19
f 62/149/36 48/117/36 63/150/36
f 74/151/37 75/152/37 50/153/37 64/154/37
f 69/155/38 55/156/38 88/157/38 77/158/38 96/159/38 78/160/38
f 78/161/39 56/162/39 69/163/39
f 72/116/40 57/164/40 80/165/40 79/165/40
f 58/153/41 72/166/41 81/152/41
f 73/167/42 58/121/42 82/168/42
f 83/169/43 84/170/43 75/171/43 74/172/43 85/173/43 86/174/43
f 50/175/44 75/170/44 87/171/44
f 70/176/45 50/166/45 87/152/45 89/177/45 76/178/45
f 88/179/46 55/180/46 76/181/46 89/182/46
f 71/183/36 72/116/36 79/165/36
f 58/175/47 81/170/47 84/171/47
f 72/175/48 91/170/48 81/171/48
f 82/168/49 58/121/49 92/184/49
f 92/185/50 58/166/50 84/152/50 83/186/50 93/187/50 94/188/50
f 75/189/51 84/190/51 95/191/51
f 87/189/52 75/190/52 95/191/52
f 77/192/53 88/173/53 89/193/53 87/170/53 91/171/53
f 90/194/28 78/195/28 97/195/28
f 84/189/54 81/190/54 95/191/54
f 81/189/55 91/190/55 95/191/55
f 91/189/56 87/190/56 95/191/56
f 77/196/57 91/152/57 72/153/57 71/197/57 90/198/57 97/198/57 96/199/57
f 97/200/58 78/200/58 96/201/58
f 29/202/59 98/203/59 65/204/59 49/205/59 38/206/59 30/207/59
f 98/208/60 29/209/60 16/210/60 15/211/60 99/212/60
f 65/213/61 98/214/61 66/215/61
f 98/216/62 99/217/62 100/218/62
f 13/219/63 101/220/63 99/221/63 15/222/63 14/223/63
f 98/224/64 100/225/64 85/226/64 74/227/64 64/228/64 66/229/64
f 99/230/65 102/231/65 100/232/65
f 28/233/66 103/234/66 101/235/66 13/236/66 12/237/66
f 99/238/67 101/239/67 102/240/67
f 85/241/68 100/242/68 104/243/68 86/244/68
f 100/245/69 102/246/69 104/247/69
f 24/248/70 61/249/70 60/250/70 103/251/70 28/252/70 27/253/70 25/254/70
f 101/255/71 103/256/71 105/257/71
f 101/258/72 105/259/72 102/260/72
f 106/261/73 93/262/73 83/263/73 86/264/73 104/265/73
f 102/266/74 105/267/74 104/268/74
f 61/269/59 24/270/59 23/271/59 35/272/59 47/273/59
f 103/274/75 60/275/75 59/276/75 73/277/75 82/278/75 92/279/75 94/280/75 106/281/75
f 103/282/76 106/283/76 105/284/76
f 105/285/77 106/286/77 104/287/77
f 93/288/78 106/289/78 94/290/78
